<?xml version="1.0" encoding="UTF-8" standalone="no"?><svg xmlns="http://www.w3.org/2000/svg" xmlns:xlink="http://www.w3.org/1999/xlink" fill="#000000" height="384" preserveAspectRatio="xMidYMid meet" version="1" viewBox="0.0 0.0 450.0 384.0" width="450" zoomAndPan="magnify"><g id="change1_1"><path d="M 423.503906 262.558594 C 415.734375 262.558594 409.050781 257.785156 406.15625 250.984375 C 406.132812 250.925781 406.105469 250.867188 406.082031 250.808594 C 405.890625 250.347656 405.726562 249.875 405.570312 249.398438 C 405.488281 249.136719 405.414062 248.875 405.34375 248.613281 C 405.273438 248.367188 405.210938 248.121094 405.152344 247.871094 C 405.085938 247.589844 405.019531 247.308594 404.964844 247.027344 C 404.882812 246.578125 404.8125 246.121094 404.757812 245.65625 C 404.738281 245.476562 404.722656 245.292969 404.707031 245.109375 C 404.660156 244.5625 404.621094 244.011719 404.621094 243.449219 C 404.621094 242.882812 404.65625 242.324219 404.707031 241.769531 C 404.753906 241.300781 404.816406 240.828125 404.898438 240.347656 C 404.902344 240.3125 404.910156 240.273438 404.914062 240.234375 C 405.089844 239.261719 405.355469 238.253906 405.699219 237.199219 C 408.277344 229.816406 415.273438 224.496094 423.503906 224.496094 C 433.832031 224.496094 442.230469 233 442.230469 243.449219 C 442.230469 253.988281 433.832031 262.558594 423.503906 262.558594 Z M 400.304688 230.265625 L 311.742188 195.441406 C 312.121094 193.636719 312.332031 191.769531 312.332031 189.851562 C 312.332031 187.835938 312.089844 185.878906 311.664062 183.988281 L 390.480469 162.378906 C 393.683594 169.746094 400.066406 175.375 407.871094 177.53125 C 408.039062 177.578125 408.210938 177.617188 408.378906 177.664062 C 408.921875 177.800781 409.460938 177.933594 410.011719 178.035156 C 410.628906 178.15625 411.25 178.25 411.878906 178.324219 C 412.136719 178.355469 412.398438 178.371094 412.65625 178.394531 C 412.945312 178.421875 413.226562 178.457031 413.515625 178.472656 L 417.148438 217.386719 C 410.058594 219.117188 403.972656 223.765625 400.304688 230.265625 Z M 382.535156 262.296875 C 379.132812 256.644531 373.867188 252.523438 367.753906 250.589844 C 367.699219 250.570312 367.648438 250.554688 367.597656 250.539062 C 366.8125 250.296875 366.011719 250.082031 365.199219 249.914062 C 365.179688 249.910156 365.160156 249.902344 365.140625 249.898438 C 364.359375 249.738281 363.566406 249.621094 362.765625 249.53125 C 362.59375 249.511719 362.421875 249.496094 362.246094 249.480469 C 361.445312 249.40625 360.640625 249.355469 359.824219 249.355469 C 359.125 249.355469 358.429688 249.394531 357.707031 249.464844 C 357.152344 249.507812 356.609375 249.574219 356.066406 249.652344 C 355.855469 249.679688 355.664062 249.695312 355.445312 249.726562 C 355.339844 249.746094 355.238281 249.777344 355.136719 249.796875 C 351.589844 250.433594 348.289062 251.773438 345.378906 253.679688 C 345.355469 253.691406 345.335938 253.703125 345.3125 253.714844 L 305.410156 207.855469 C 306.8125 206.296875 308.050781 204.589844 309.0625 202.730469 L 397.535156 237.523438 C 397.449219 237.914062 397.371094 238.304688 397.300781 238.699219 C 397.1875 239.308594 397.089844 239.917969 397.019531 240.527344 C 397.003906 240.710938 396.988281 240.898438 396.972656 241.085938 C 396.898438 241.875 396.855469 242.664062 396.855469 243.449219 C 396.855469 244.300781 396.898438 245.148438 396.980469 246 C 397.035156 246.570312 397.128906 247.128906 397.21875 247.691406 C 397.261719 247.945312 397.285156 248.203125 397.335938 248.457031 C 397.453125 249.097656 397.609375 249.722656 397.777344 250.347656 C 397.824219 250.535156 397.867188 250.726562 397.921875 250.914062 C 398.078125 251.46875 398.265625 252.007812 398.457031 252.546875 C 398.53125 252.75 398.585938 252.960938 398.660156 253.160156 Z M 359.824219 295.183594 C 349.410156 295.183594 340.941406 286.683594 340.941406 276.230469 C 340.941406 275.832031 340.976562 275.441406 341 275.046875 C 341.023438 274.714844 341.035156 274.382812 341.074219 274.054688 C 341.105469 273.789062 341.152344 273.527344 341.191406 273.265625 C 341.253906 272.878906 341.3125 272.484375 341.398438 272.101562 C 341.449219 271.867188 341.515625 271.640625 341.574219 271.410156 C 341.675781 271.015625 341.777344 270.628906 341.902344 270.246094 C 341.980469 270.007812 342.070312 269.777344 342.15625 269.546875 C 342.289062 269.1875 342.429688 268.828125 342.582031 268.476562 C 342.691406 268.230469 342.8125 267.988281 342.933594 267.742188 C 343.085938 267.429688 343.246094 267.113281 343.421875 266.804688 C 343.566406 266.542969 343.726562 266.285156 343.882812 266.03125 C 344.050781 265.765625 344.222656 265.496094 344.40625 265.238281 C 344.597656 264.960938 344.800781 264.6875 345.007812 264.425781 C 345.171875 264.210938 345.339844 264.003906 345.515625 263.796875 C 345.769531 263.496094 346.035156 263.199219 346.3125 262.910156 C 346.433594 262.78125 346.5625 262.65625 346.6875 262.53125 C 347.039062 262.1875 347.394531 261.851562 347.769531 261.535156 C 347.820312 261.496094 347.867188 261.457031 347.914062 261.417969 C 348.203125 261.179688 348.507812 260.960938 348.8125 260.738281 C 350.734375 259.367188 352.839844 258.367188 355.042969 257.765625 C 355.21875 257.722656 355.394531 257.671875 355.570312 257.628906 C 355.824219 257.566406 356.082031 257.511719 356.339844 257.464844 C 356.59375 257.414062 356.851562 257.382812 357.109375 257.34375 C 358.015625 257.230469 358.917969 257.121094 359.824219 257.121094 C 360.40625 257.121094 360.980469 257.160156 361.546875 257.214844 C 361.710938 257.226562 361.867188 257.25 362.027344 257.269531 C 362.46875 257.320312 362.902344 257.386719 363.332031 257.472656 C 363.46875 257.496094 363.601562 257.519531 363.734375 257.550781 C 364.890625 257.800781 366.011719 258.15625 367.078125 258.617188 C 367.101562 258.625 367.125 258.636719 367.148438 258.648438 C 373.84375 261.5625 378.550781 268.347656 378.550781 276.230469 C 378.550781 286.683594 370.152344 295.183594 359.824219 295.183594 Z M 339.3125 259.097656 C 339.261719 259.160156 339.210938 259.226562 339.160156 259.289062 C 338.71875 259.839844 338.296875 260.40625 337.902344 260.984375 C 337.808594 261.121094 337.714844 261.257812 337.625 261.394531 C 337.1875 262.054688 336.777344 262.722656 336.402344 263.414062 C 336.390625 263.445312 336.375 263.476562 336.359375 263.503906 C 336.011719 264.160156 335.695312 264.832031 335.398438 265.511719 C 335.320312 265.691406 335.242188 265.875 335.167969 266.058594 C 334.898438 266.730469 334.644531 267.40625 334.429688 268.097656 C 334.410156 268.160156 334.382812 268.222656 334.363281 268.285156 C 334.140625 269.019531 333.953125 269.765625 333.792969 270.519531 C 333.746094 270.738281 333.703125 270.960938 333.660156 271.179688 C 333.621094 271.394531 333.570312 271.605469 333.53125 271.820312 L 304.304688 271.328125 C 304.285156 270.96875 304.246094 270.609375 304.214844 270.253906 C 304.199219 270.085938 304.191406 269.917969 304.171875 269.753906 C 304.089844 268.960938 303.96875 268.175781 303.816406 267.402344 C 303.785156 267.246094 303.746094 267.097656 303.714844 266.945312 C 303.566406 266.257812 303.394531 265.578125 303.195312 264.90625 C 303.160156 264.789062 303.128906 264.671875 303.09375 264.558594 C 301.050781 258.015625 296.613281 252.476562 290.726562 249.242188 C 290.308594 249.007812 289.882812 248.792969 289.453125 248.578125 L 288.050781 216.609375 C 292.195312 216.238281 296.054688 214.894531 299.4375 212.828125 L 339.496094 258.859375 C 339.433594 258.9375 339.375 259.019531 339.3125 259.097656 Z M 277.683594 291.609375 C 269.328125 291.609375 262.242188 286.042969 259.835938 278.386719 C 259.816406 278.328125 259.796875 278.265625 259.78125 278.207031 C 259.609375 277.644531 259.460938 277.070312 259.34375 276.488281 C 259.335938 276.460938 259.335938 276.433594 259.328125 276.40625 C 259.226562 275.886719 259.148438 275.355469 259.089844 274.816406 C 259.070312 274.671875 259.058594 274.527344 259.042969 274.382812 C 258.992188 273.8125 258.957031 273.238281 258.957031 272.65625 C 258.957031 269.40625 259.761719 266.34375 261.171875 263.660156 C 261.214844 263.578125 261.261719 263.496094 261.308594 263.414062 C 261.523438 263.015625 261.757812 262.628906 262 262.246094 C 262.125 262.054688 262.25 261.867188 262.378906 261.679688 C 262.558594 261.421875 262.746094 261.171875 262.9375 260.921875 C 263.140625 260.65625 263.351562 260.394531 263.570312 260.136719 C 263.699219 259.984375 263.839844 259.832031 263.976562 259.683594 C 264.261719 259.371094 264.550781 259.066406 264.855469 258.773438 C 264.941406 258.691406 265.03125 258.609375 265.121094 258.527344 C 265.476562 258.199219 265.84375 257.878906 266.222656 257.578125 C 266.269531 257.539062 266.324219 257.503906 266.371094 257.464844 C 266.789062 257.140625 267.21875 256.832031 267.660156 256.542969 C 267.6875 256.527344 267.714844 256.511719 267.742188 256.492188 C 268.203125 256.195312 268.679688 255.917969 269.164062 255.660156 C 269.191406 255.648438 269.214844 255.636719 269.242188 255.625 C 269.726562 255.371094 270.226562 255.136719 270.734375 254.929688 C 270.785156 254.90625 270.835938 254.890625 270.886719 254.871094 C 271.371094 254.675781 271.863281 254.496094 272.367188 254.34375 C 272.480469 254.308594 272.597656 254.285156 272.714844 254.253906 C 273.160156 254.128906 273.609375 254.007812 274.070312 253.914062 C 274.304688 253.867188 274.550781 253.839844 274.789062 253.800781 C 275.140625 253.746094 275.484375 253.679688 275.839844 253.644531 C 276.445312 253.585938 277.0625 253.550781 277.683594 253.550781 C 278.929688 253.550781 280.140625 253.679688 281.316406 253.910156 C 282.242188 254.105469 283.132812 254.371094 284.011719 254.726562 C 284.148438 254.792969 284.292969 254.851562 284.441406 254.898438 C 285.921875 255.4375 287.292969 256.175781 288.550781 257.054688 C 288.925781 257.324219 289.296875 257.59375 289.648438 257.886719 C 289.683594 257.914062 289.714844 257.945312 289.75 257.972656 C 291.585938 259.519531 293.128906 261.410156 294.28125 263.550781 C 294.28125 263.554688 294.285156 263.558594 294.289062 263.566406 C 294.566406 264.089844 294.824219 264.625 295.054688 265.175781 C 295.066406 265.199219 295.078125 265.226562 295.089844 265.253906 C 295.539062 266.328125 295.886719 267.457031 296.132812 268.621094 C 296.167969 268.78125 296.195312 268.945312 296.226562 269.109375 C 296.304688 269.527344 296.367188 269.949219 296.417969 270.375 C 296.4375 270.550781 296.460938 270.722656 296.476562 270.894531 C 296.53125 271.476562 296.566406 272.0625 296.566406 272.65625 C 296.566406 283.109375 288.097656 291.609375 277.683594 291.609375 Z M 214.039062 336.492188 C 213.976562 336.441406 213.910156 336.398438 213.847656 336.347656 C 213.054688 335.707031 212.21875 335.121094 211.351562 334.574219 C 210.941406 334.3125 210.53125 334.046875 210.109375 333.8125 C 209.84375 333.660156 209.566406 333.53125 209.296875 333.390625 C 208.828125 333.148438 208.359375 332.914062 207.878906 332.703125 C 207.613281 332.585938 207.339844 332.480469 207.070312 332.371094 C 206.566406 332.167969 206.058594 331.976562 205.546875 331.804688 C 205.273438 331.714844 204.996094 331.632812 204.722656 331.550781 C 204.1875 331.390625 203.652344 331.253906 203.109375 331.132812 C 202.835938 331.066406 202.5625 331.003906 202.28125 330.949219 C 201.703125 330.835938 201.121094 330.753906 200.53125 330.679688 C 200.28125 330.648438 200.035156 330.605469 199.78125 330.582031 C 198.9375 330.5 198.09375 330.453125 197.238281 330.453125 C 196.4375 330.453125 195.640625 330.496094 194.847656 330.574219 C 194.390625 330.617188 193.945312 330.6875 193.5 330.75 C 193.214844 330.792969 192.925781 330.832031 192.640625 330.886719 C 192.023438 330.996094 191.414062 331.132812 190.8125 331.285156 C 190.757812 331.296875 190.699219 331.3125 190.640625 331.328125 C 189.949219 331.507812 189.269531 331.710938 188.601562 331.945312 L 180.019531 285.578125 C 186.085938 283.433594 191.144531 279.148438 194.316406 273.613281 C 194.359375 273.539062 194.40625 273.464844 194.449219 273.390625 C 194.605469 273.113281 194.753906 272.828125 194.898438 272.546875 C 195.738281 270.9375 196.429688 269.25 196.929688 267.484375 L 251.242188 274.378906 C 251.253906 274.550781 251.285156 274.71875 251.300781 274.886719 C 251.339844 275.359375 251.398438 275.820312 251.460938 276.285156 C 251.523438 276.726562 251.582031 277.171875 251.664062 277.609375 C 251.746094 278.050781 251.847656 278.480469 251.949219 278.910156 C 252.0625 279.371094 252.171875 279.835938 252.304688 280.285156 C 252.40625 280.640625 252.53125 280.984375 252.648438 281.332031 C 252.828125 281.859375 253.007812 282.386719 253.21875 282.898438 C 253.300781 283.097656 253.398438 283.292969 253.484375 283.488281 C 255.167969 287.332031 257.703125 290.765625 260.976562 293.46875 Z M 197.238281 376.28125 C 186.910156 376.28125 178.511719 367.777344 178.511719 357.328125 C 178.511719 350.390625 182.164062 344.320312 187.601562 340.972656 C 187.628906 340.957031 187.664062 340.953125 187.691406 340.933594 C 194.941406 336.59375 203.917969 337.757812 209.933594 343.226562 C 209.96875 343.257812 210.003906 343.289062 210.039062 343.320312 C 210.347656 343.609375 210.648438 343.914062 210.941406 344.222656 C 214.140625 347.648438 216.117188 352.253906 216.117188 357.328125 C 216.117188 367.777344 207.648438 376.28125 197.238281 376.28125 Z M 174.515625 279.03125 C 173.449219 279.21875 172.359375 279.339844 171.238281 279.339844 C 160.910156 279.339844 152.511719 270.765625 152.511719 260.226562 C 152.511719 259.558594 152.550781 258.890625 152.617188 258.230469 C 152.644531 257.96875 152.695312 257.71875 152.734375 257.460938 C 152.789062 257.074219 152.84375 256.6875 152.921875 256.304688 C 153 255.921875 153.105469 255.542969 153.210938 255.167969 C 153.269531 254.941406 153.324219 254.71875 153.394531 254.496094 C 153.550781 253.988281 153.734375 253.488281 153.933594 253 C 153.960938 252.9375 153.980469 252.878906 154.003906 252.816406 C 156.140625 247.75 160.398438 243.804688 165.644531 242.140625 C 165.664062 242.136719 165.683594 242.128906 165.703125 242.121094 C 166.203125 241.964844 166.714844 241.839844 167.230469 241.722656 C 167.351562 241.695312 167.472656 241.667969 167.59375 241.640625 C 168.039062 241.554688 168.496094 241.488281 168.953125 241.429688 C 169.109375 241.414062 169.265625 241.386719 169.421875 241.367188 C 170.019531 241.308594 170.625 241.277344 171.238281 241.277344 C 177.492188 241.277344 183.027344 244.355469 186.464844 249.066406 C 186.648438 249.328125 186.851562 249.582031 187.019531 249.851562 C 187.019531 249.851562 187.019531 249.851562 187.019531 249.855469 C 187.027344 249.867188 187.035156 249.882812 187.046875 249.894531 C 187.296875 250.28125 187.539062 250.671875 187.761719 251.078125 C 187.8125 251.167969 187.863281 251.257812 187.910156 251.351562 C 188.003906 251.527344 188.082031 251.714844 188.171875 251.898438 C 189 253.644531 189.570312 255.457031 189.867188 257.28125 C 189.902344 257.488281 189.9375 257.695312 189.964844 257.90625 C 189.996094 258.144531 190.019531 258.382812 190.039062 258.621094 C 190.085938 259.152344 190.121094 259.6875 190.121094 260.226562 C 190.121094 260.589844 190.089844 260.949219 190.058594 261.308594 C 190.023438 261.714844 189.992188 262.113281 189.988281 262.402344 C 189.78125 264.242188 189.324219 266.011719 188.636719 267.65625 C 188.636719 267.660156 188.632812 267.660156 188.632812 267.664062 C 188.4375 268.136719 188.210938 268.589844 187.976562 269.039062 C 187.890625 269.207031 187.808594 269.371094 187.714844 269.535156 C 187.601562 269.738281 187.476562 269.933594 187.355469 270.132812 C 184.617188 274.597656 180.089844 277.910156 174.804688 278.941406 C 174.703125 278.964844 174.613281 279.003906 174.515625 279.03125 Z M 146.898438 249.6875 C 146.863281 249.773438 146.824219 249.855469 146.789062 249.941406 C 146.523438 250.597656 146.28125 251.261719 146.0625 251.9375 C 146.011719 252.101562 145.953125 252.261719 145.902344 252.425781 C 145.695312 253.109375 145.519531 253.808594 145.367188 254.511719 C 145.339844 254.640625 145.300781 254.769531 145.273438 254.902344 C 145.109375 255.726562 144.984375 256.5625 144.894531 257.40625 C 144.875 257.609375 144.871094 257.816406 144.855469 258.023438 C 144.8125 258.554688 144.761719 259.085938 144.75 259.621094 L 82.785156 267.441406 C 81.066406 262.359375 77.886719 257.96875 73.746094 254.765625 C 73.722656 254.75 73.707031 254.730469 73.683594 254.714844 L 100.429688 217.492188 C 103.453125 218.6875 106.734375 219.367188 110.175781 219.367188 C 116.296875 219.367188 121.921875 217.246094 126.414062 213.71875 L 151.207031 242.652344 C 149.40625 244.765625 147.972656 247.148438 146.898438 249.6875 Z M 57.570312 295.027344 C 47.242188 295.027344 38.84375 286.527344 38.84375 276.074219 C 38.84375 268.425781 43.28125 261.828125 49.664062 258.777344 C 49.679688 258.769531 49.695312 258.769531 49.710938 258.761719 C 50.90625 258.191406 52.136719 257.761719 53.394531 257.464844 C 53.460938 257.445312 53.523438 257.425781 53.59375 257.410156 C 54.132812 257.289062 54.679688 257.203125 55.230469 257.132812 C 55.347656 257.117188 55.464844 257.089844 55.582031 257.078125 C 56.238281 257.007812 56.902344 256.96875 57.570312 256.96875 C 58.113281 256.96875 58.644531 257.003906 59.171875 257.050781 C 59.460938 257.074219 59.746094 257.109375 60.023438 257.148438 C 60.175781 257.167969 60.328125 257.195312 60.480469 257.21875 C 62.363281 257.53125 64.011719 258.09375 65.300781 258.660156 C 65.714844 258.847656 66.125 259.039062 66.519531 259.253906 C 71.507812 262.042969 75.0625 266.941406 76.054688 272.417969 C 76.074219 272.527344 76.113281 272.628906 76.144531 272.730469 C 76.335938 273.820312 76.453125 274.933594 76.453125 276.074219 C 76.453125 286.527344 67.984375 295.027344 57.570312 295.027344 Z M 38.898438 217.6875 C 44.316406 214.828125 48.484375 210.230469 50.878906 204.664062 C 50.992188 204.40625 51.097656 204.148438 51.203125 203.886719 C 51.332031 203.558594 51.449219 203.226562 51.566406 202.894531 C 51.824219 202.171875 52.046875 201.4375 52.242188 200.691406 C 52.253906 200.652344 52.261719 200.617188 52.273438 200.578125 C 52.539062 199.542969 52.746094 198.488281 52.890625 197.40625 L 83.898438 196.898438 C 84.976562 203.632812 88.558594 209.527344 93.671875 213.589844 L 66.855469 250.914062 C 63.960938 249.824219 60.839844 249.199219 57.570312 249.199219 C 54.976562 249.199219 52.472656 249.597656 50.097656 250.304688 C 50.09375 250.304688 50.089844 250.304688 50.082031 250.308594 Z M 26.648438 212.847656 C 16.238281 212.847656 7.769531 204.34375 7.769531 193.890625 C 7.769531 183.351562 16.238281 174.78125 26.648438 174.78125 C 29.820312 174.78125 32.804688 175.597656 35.425781 177.019531 C 35.554688 177.089844 35.679688 177.164062 35.804688 177.238281 C 36.160156 177.441406 36.507812 177.65625 36.847656 177.882812 C 37.007812 177.988281 37.164062 178.09375 37.320312 178.203125 C 37.609375 178.410156 37.890625 178.632812 38.171875 178.855469 C 38.34375 178.992188 38.519531 179.125 38.683594 179.269531 C 38.886719 179.441406 39.078125 179.632812 39.273438 179.8125 C 43.003906 183.324219 45.296875 188.335938 45.378906 193.890625 C 45.378906 194.488281 45.34375 195.078125 45.289062 195.660156 C 45.277344 195.800781 45.257812 195.933594 45.242188 196.070312 C 45.183594 196.589844 45.109375 197.097656 45.011719 197.601562 C 45.003906 197.652344 44.992188 197.707031 44.984375 197.757812 C 43.214844 206.359375 35.667969 212.847656 26.648438 212.847656 Z M 50.953125 129.5625 C 52.304688 129.777344 53.734375 129.882812 55.261719 129.882812 C 56.125 129.882812 56.976562 129.832031 57.820312 129.753906 C 57.914062 129.742188 58.007812 129.738281 58.101562 129.726562 C 61.808594 129.347656 65.296875 128.238281 68.417969 126.421875 L 95.390625 170.304688 C 89.160156 174.507812 84.804688 181.296875 83.78125 189.132812 L 52.804688 189.636719 C 52.773438 189.417969 52.722656 189.199219 52.683594 188.984375 C 52.632812 188.714844 52.585938 188.441406 52.53125 188.175781 C 52.390625 187.539062 52.230469 186.910156 52.050781 186.292969 C 51.960938 185.984375 51.859375 185.679688 51.761719 185.375 C 51.609375 184.917969 51.445312 184.472656 51.273438 184.027344 C 51.121094 183.640625 50.964844 183.261719 50.796875 182.886719 C 50.597656 182.4375 50.390625 181.996094 50.167969 181.5625 C 50.035156 181.300781 49.902344 181.039062 49.761719 180.785156 C 49.441406 180.207031 49.105469 179.640625 48.746094 179.089844 C 48.621094 178.902344 48.488281 178.71875 48.359375 178.53125 C 48.007812 178.015625 47.640625 177.515625 47.253906 177.027344 C 47.175781 176.933594 47.105469 176.832031 47.027344 176.738281 C 46.554688 176.15625 46.046875 175.597656 45.523438 175.058594 C 45.425781 174.957031 45.328125 174.855469 45.230469 174.757812 C 44.675781 174.203125 44.105469 173.671875 43.507812 173.167969 C 43.492188 173.15625 43.476562 173.144531 43.460938 173.132812 C 42.84375 172.617188 42.199219 172.132812 41.535156 171.671875 C 41.492188 171.640625 41.453125 171.609375 41.40625 171.578125 C 40.742188 171.125 40.050781 170.699219 39.339844 170.304688 C 39.28125 170.273438 39.21875 170.242188 39.160156 170.207031 C 38.886719 170.058594 38.617188 169.90625 38.339844 169.765625 Z M 36.53125 103.160156 C 36.53125 92.621094 44.933594 84.050781 55.261719 84.050781 C 61.734375 84.050781 67.457031 87.367188 70.859375 92.410156 C 70.929688 92.550781 70.984375 92.699219 71.074219 92.835938 C 72.128906 94.472656 72.90625 96.195312 73.421875 97.988281 C 73.527344 98.375 73.632812 98.757812 73.714844 99.152344 C 73.757812 99.335938 73.78125 99.523438 73.816406 99.710938 C 73.890625 100.109375 73.953125 100.515625 74 100.925781 C 74.019531 101.09375 74.039062 101.257812 74.054688 101.429688 C 74.105469 102 74.140625 102.574219 74.140625 103.160156 C 74.140625 103.425781 74.113281 103.683594 74.101562 103.949219 C 74.058594 104.125 74.03125 104.542969 74.007812 104.753906 C 74.007812 104.789062 74.003906 104.828125 74 104.867188 C 73.574219 109.027344 71.871094 112.871094 69.15625 115.949219 C 69.019531 116.101562 68.886719 116.257812 68.742188 116.402344 C 68.644531 116.511719 68.535156 116.609375 68.433594 116.714844 C 68.09375 117.046875 67.742188 117.367188 67.378906 117.675781 C 67.253906 117.765625 67.125 117.851562 67.007812 117.949219 C 66.613281 118.28125 66.207031 118.59375 65.789062 118.886719 C 63.316406 120.558594 60.429688 121.65625 57.316406 121.996094 C 57.257812 122.003906 57.199219 122.011719 57.136719 122.019531 C 56.519531 122.082031 55.894531 122.113281 55.261719 122.113281 C 44.933594 122.113281 36.53125 113.613281 36.53125 103.160156 Z M 128.902344 192.648438 C 128.902344 203.097656 120.503906 211.601562 110.175781 211.601562 C 99.761719 211.601562 91.292969 203.097656 91.292969 192.648438 C 91.292969 182.109375 99.761719 173.539062 110.175781 173.539062 C 120.503906 173.539062 128.902344 182.109375 128.902344 192.648438 Z M 75.496094 120.503906 C 78.042969 117.519531 79.929688 113.96875 80.972656 110.070312 L 161.570312 132.371094 C 161.441406 133.441406 161.355469 134.527344 161.355469 135.632812 C 161.355469 140.308594 162.5625 144.703125 164.664062 148.535156 L 130.082031 174.964844 C 125.222656 169.34375 118.109375 165.769531 110.175781 165.769531 C 107.484375 165.769531 104.886719 166.183594 102.4375 166.933594 L 74.558594 121.578125 C 74.882812 121.226562 75.191406 120.867188 75.496094 120.503906 Z M 183.964844 41.902344 C 187.464844 47.179688 192.652344 50.96875 198.59375 52.632812 L 188.644531 108.792969 C 188.378906 108.785156 188.117188 108.753906 187.851562 108.753906 C 177.015625 108.753906 167.6875 115.394531 163.589844 124.871094 L 81.894531 102.265625 C 81.882812 101.925781 81.839844 101.597656 81.816406 101.261719 C 81.785156 100.867188 81.765625 100.46875 81.71875 100.074219 C 81.667969 99.605469 81.585938 99.140625 81.507812 98.675781 C 81.441406 98.269531 81.382812 97.863281 81.292969 97.464844 C 81.21875 97.121094 81.121094 96.78125 81.03125 96.441406 C 80.894531 95.902344 80.757812 95.367188 80.589844 94.847656 C 80.574219 94.796875 80.554688 94.75 80.539062 94.703125 C 80.285156 93.9375 80.007812 93.183594 79.691406 92.453125 Z M 206.003906 7.769531 C 216.332031 7.769531 224.730469 16.34375 224.730469 26.878906 C 224.730469 28.695312 224.460938 30.449219 223.988281 32.113281 C 223.980469 32.140625 223.964844 32.164062 223.957031 32.191406 C 223.640625 33.308594 223.210938 34.363281 222.71875 35.378906 C 219.632812 41.566406 213.308594 45.832031 206.003906 45.832031 C 199.824219 45.832031 194.347656 42.824219 190.902344 38.210938 C 190.691406 37.921875 190.46875 37.644531 190.273438 37.339844 C 190.21875 37.261719 190.171875 37.171875 190.121094 37.089844 C 189.738281 36.472656 189.378906 35.835938 189.0625 35.160156 C 189.039062 35.117188 189.007812 35.082031 188.984375 35.039062 C 187.804688 32.5625 187.121094 29.804688 187.121094 26.878906 C 187.121094 16.34375 195.589844 7.769531 206.003906 7.769531 Z M 229.375 39.441406 C 229.597656 39.011719 229.828125 38.589844 230.027344 38.148438 L 291.0625 58.925781 C 290.582031 60.539062 290.277344 62.21875 290.105469 63.945312 C 290.101562 64.019531 290.09375 64.089844 290.085938 64.164062 C 290.007812 65.035156 289.953125 65.910156 289.953125 66.804688 C 289.953125 67.695312 290.003906 68.574219 290.085938 69.441406 C 290.089844 69.488281 290.09375 69.535156 290.097656 69.578125 C 290.414062 72.78125 291.273438 75.828125 292.628906 78.585938 L 209.683594 120.261719 C 206.4375 115.585938 201.761719 112.007812 196.292969 110.15625 L 206.308594 53.597656 C 206.902344 53.59375 207.472656 53.535156 208.046875 53.496094 C 208.28125 53.476562 208.523438 53.480469 208.757812 53.453125 C 211.726562 53.171875 214.464844 52.441406 217.03125 51.214844 C 222.390625 48.71875 226.59375 44.699219 229.269531 39.652344 C 229.304688 39.585938 229.339844 39.511719 229.375 39.441406 Z M 297.089844 85.039062 C 297.222656 85.179688 297.363281 85.304688 297.496094 85.441406 C 297.679688 85.628906 297.863281 85.8125 298.054688 85.996094 C 298.453125 86.390625 298.867188 86.765625 299.289062 87.128906 C 299.472656 87.289062 299.65625 87.445312 299.84375 87.601562 C 300.339844 88.003906 300.84375 88.382812 301.363281 88.746094 C 301.492188 88.835938 301.617188 88.933594 301.746094 89.023438 C 303.113281 89.945312 304.554688 90.734375 306.054688 91.382812 C 306.183594 91.4375 306.3125 91.480469 306.4375 91.535156 C 307.050781 91.785156 307.667969 92.015625 308.296875 92.21875 C 308.523438 92.296875 308.753906 92.363281 308.984375 92.429688 C 309.53125 92.59375 310.085938 92.734375 310.644531 92.863281 C 310.90625 92.921875 311.167969 92.980469 311.433594 93.03125 C 311.582031 93.0625 311.730469 93.105469 311.882812 93.132812 L 287.3125 163.210938 C 286.769531 163.179688 286.230469 163.128906 285.683594 163.128906 C 277.164062 163.128906 269.597656 167.21875 264.746094 173.535156 L 212.84375 144.824219 C 213.898438 141.953125 214.503906 138.863281 214.503906 135.632812 C 214.503906 132.691406 214.015625 129.867188 213.144531 127.21875 Z M 297.820312 64.832031 C 298.792969 55.21875 306.773438 47.699219 316.449219 47.699219 C 326.859375 47.699219 335.328125 56.269531 335.328125 66.804688 C 335.328125 69.949219 334.554688 72.90625 333.199219 75.519531 C 333.175781 75.566406 333.136719 75.601562 333.113281 75.648438 C 332.835938 76.214844 332.5 76.78125 332.136719 77.339844 C 328.746094 82.410156 322.980469 85.761719 316.449219 85.761719 C 315.761719 85.761719 315.078125 85.714844 314.402344 85.640625 C 314.167969 85.613281 313.941406 85.566406 313.710938 85.53125 C 313.277344 85.46875 312.851562 85.402344 312.429688 85.308594 C 312.132812 85.242188 311.84375 85.160156 311.554688 85.078125 C 311.21875 84.988281 310.886719 84.894531 310.558594 84.785156 C 310.21875 84.671875 309.882812 84.542969 309.554688 84.410156 C 309.304688 84.3125 309.0625 84.207031 308.816406 84.097656 C 308.4375 83.925781 308.058594 83.746094 307.691406 83.546875 C 307.542969 83.46875 307.394531 83.382812 307.25 83.296875 C 305.328125 82.195312 303.621094 80.765625 302.199219 79.074219 C 302.117188 78.976562 302.03125 78.886719 301.949219 78.785156 C 301.679688 78.449219 301.429688 78.097656 301.183594 77.746094 C 301.023438 77.53125 300.882812 77.304688 300.734375 77.085938 C 299.195312 74.679688 298.175781 71.90625 297.847656 68.921875 C 297.835938 68.824219 297.820312 68.730469 297.8125 68.632812 C 297.757812 68.03125 297.722656 67.421875 297.722656 66.804688 C 297.722656 66.128906 297.765625 65.476562 297.820312 64.832031 Z M 266.953125 189.851562 C 266.953125 186.492188 267.832031 183.339844 269.351562 180.601562 C 269.363281 180.578125 269.382812 180.566406 269.390625 180.546875 C 269.398438 180.53125 269.402344 180.515625 269.410156 180.503906 C 272.636719 174.773438 278.714844 170.898438 285.683594 170.898438 C 293.445312 170.898438 300.125 175.628906 303.023438 182.367188 C 303.085938 182.59375 303.171875 182.808594 303.269531 183.015625 C 304.09375 185.140625 304.5625 187.441406 304.5625 189.851562 C 304.5625 200.390625 296.09375 208.960938 285.683594 208.960938 C 285.378906 208.960938 285.085938 208.929688 284.785156 208.914062 C 284.472656 208.84375 284.148438 208.800781 283.820312 208.808594 C 283.753906 208.8125 283.6875 208.832031 283.621094 208.839844 C 274.261719 207.789062 266.953125 199.679688 266.953125 189.851562 Z M 263.703125 204.847656 C 267.496094 210.550781 273.394531 214.703125 280.257812 216.160156 L 281.570312 246.070312 C 281.246094 246.023438 280.910156 245.984375 280.574219 245.945312 C 280.496094 245.9375 280.421875 245.925781 280.34375 245.914062 C 279.832031 245.859375 279.308594 245.8125 278.761719 245.78125 L 277.683594 245.78125 C 276.84375 245.78125 276.015625 245.828125 275.191406 245.90625 C 274.855469 245.941406 274.523438 245.996094 274.191406 246.042969 C 273.730469 246.105469 273.265625 246.167969 272.8125 246.257812 C 272.378906 246.339844 271.949219 246.441406 271.523438 246.542969 C 271.203125 246.621094 270.886719 246.703125 270.570312 246.792969 C 270.0625 246.9375 269.5625 247.09375 269.066406 247.269531 C 268.890625 247.332031 268.714844 247.398438 268.535156 247.46875 C 260.53125 250.46875 254.351562 257.265625 252.117188 265.710938 C 252.035156 266.015625 251.9375 266.3125 251.859375 266.625 L 197.882812 259.777344 C 197.878906 259.484375 197.835938 259.191406 197.820312 258.898438 C 197.792969 258.316406 197.765625 257.734375 197.699219 257.160156 C 197.683594 257.015625 197.652344 256.871094 197.632812 256.722656 C 197.285156 254.070312 196.550781 251.542969 195.480469 249.191406 C 195.46875 249.164062 195.460938 249.132812 195.445312 249.101562 Z M 188.3125 162.328125 C 196.820312 162.183594 204.351562 158.019531 209.128906 151.652344 L 260.960938 180.320312 C 259.828125 183.285156 259.1875 186.492188 259.1875 189.851562 C 259.1875 192.601562 259.597656 195.253906 260.355469 197.753906 L 191.265625 242.554688 C 187.949219 238.699219 183.554688 235.898438 178.648438 234.492188 Z M 169.125 135.632812 C 169.125 125.09375 177.523438 116.519531 187.851562 116.519531 C 195.054688 116.519531 201.320312 120.621094 204.503906 126.636719 C 204.558594 126.796875 204.609375 126.960938 204.6875 127.121094 C 204.738281 127.222656 204.808594 127.308594 204.867188 127.402344 C 206.050781 129.898438 206.734375 132.683594 206.734375 135.632812 C 206.734375 138.859375 205.921875 141.898438 204.496094 144.5625 C 204.484375 144.585938 204.46875 144.601562 204.453125 144.621094 C 204.4375 144.65625 204.429688 144.6875 204.414062 144.71875 C 201.203125 150.59375 194.984375 154.582031 187.851562 154.582031 C 177.523438 154.582031 169.125 146.078125 169.125 135.632812 Z M 134.273438 181.539062 L 169.355469 154.726562 C 172.464844 157.792969 176.320312 160.078125 180.613281 161.3125 L 170.941406 233.511719 C 170.210938 233.519531 169.480469 233.566406 168.757812 233.632812 C 168.558594 233.652344 168.363281 233.679688 168.167969 233.703125 C 167.496094 233.78125 166.828125 233.882812 166.167969 234.011719 C 166.042969 234.035156 165.921875 234.054688 165.796875 234.078125 C 162.71875 234.722656 159.769531 235.898438 157.089844 237.578125 L 131.789062 208.050781 C 134.855469 203.691406 136.671875 198.386719 136.671875 192.648438 C 136.671875 188.683594 135.800781 184.929688 134.273438 181.539062 Z M 393.039062 136.320312 C 392.5625 137.019531 392.128906 137.746094 391.71875 138.488281 C 391.519531 138.832031 391.339844 139.1875 391.15625 139.542969 C 391.042969 139.773438 390.929688 140.003906 390.820312 140.238281 C 390.046875 141.882812 389.429688 143.617188 389 145.421875 C 388.980469 145.5 388.957031 145.578125 388.9375 145.65625 C 388.828125 146.136719 388.738281 146.621094 388.652344 147.113281 C 388.589844 147.472656 388.539062 147.828125 388.488281 148.1875 C 388.441406 148.550781 388.394531 148.910156 388.359375 149.277344 C 388.289062 150.058594 388.242188 150.847656 388.242188 151.632812 C 388.242188 152.359375 388.289062 153.109375 388.355469 153.878906 C 388.378906 154.167969 388.402344 154.457031 388.4375 154.742188 C 388.441406 154.789062 388.441406 154.835938 388.449219 154.882812 L 308.855469 176.703125 C 305.78125 171.277344 300.871094 167.050781 294.980469 164.839844 L 320.03125 93.355469 C 324.101562 92.855469 328.148438 91.261719 332.230469 88.503906 C 334.179688 86.96875 335.894531 85.257812 337.332031 83.425781 Z M 396.101562 149.824219 C 396.324219 147.566406 396.972656 145.335938 397.976562 143.269531 C 398.035156 143.148438 398.085938 143.023438 398.148438 142.90625 C 398.289062 142.632812 398.445312 142.367188 398.601562 142.097656 C 398.804688 141.75 399.003906 141.394531 399.230469 141.058594 C 399.238281 141.046875 399.246094 141.03125 399.257812 141.019531 C 402.65625 135.988281 408.394531 132.679688 414.894531 132.679688 C 425.222656 132.679688 433.621094 141.179688 433.621094 151.632812 C 433.621094 161.402344 426.394531 169.46875 417.113281 170.59375 C 417.089844 170.59375 417.066406 170.585938 417.042969 170.585938 C 416.507812 170.585938 416.019531 170.636719 415.539062 170.6875 C 415.332031 170.710938 415.125 170.742188 414.894531 170.742188 C 414.3125 170.742188 413.742188 170.703125 413.175781 170.652344 C 412.898438 170.625 412.628906 170.585938 412.355469 170.546875 C 412.101562 170.511719 411.847656 170.472656 411.597656 170.429688 C 411.210938 170.359375 410.824219 170.277344 410.445312 170.183594 C 410.375 170.164062 410.304688 170.144531 410.234375 170.128906 C 403.925781 168.457031 398.695312 163.488281 396.777344 156.914062 C 396.765625 156.875 396.742188 156.8125 396.722656 156.753906 C 396.621094 156.398438 396.523438 156.042969 396.445312 155.679688 C 396.417969 155.527344 396.382812 155.367188 396.355469 155.21875 C 396.277344 154.804688 396.21875 154.386719 396.167969 153.964844 C 396.132812 153.6875 396.109375 153.425781 396.089844 153.164062 C 396.046875 152.65625 396.011719 152.148438 396.011719 151.632812 C 396.011719 151.023438 396.046875 150.421875 396.101562 149.824219 Z M 424.898438 216.800781 L 421.246094 177.695312 C 432.792969 174.796875 441.390625 164.226562 441.390625 151.632812 C 441.390625 136.898438 429.503906 124.910156 414.894531 124.910156 C 408.660156 124.910156 402.933594 127.082031 398.390625 130.6875 L 341.273438 76.453125 C 342.4375 73.457031 343.097656 70.210938 343.097656 66.804688 C 343.097656 51.988281 331.144531 39.929688 316.449219 39.929688 C 307.285156 39.929688 299.195312 44.675781 294.4375 51.867188 L 232.199219 30.679688 C 232.375 29.433594 232.496094 28.171875 232.496094 26.878906 C 232.496094 12.058594 220.613281 0.00390625 206.003906 0.00390625 C 191.308594 0.00390625 179.351562 12.058594 179.351562 26.878906 C 179.351562 29.675781 179.789062 32.371094 180.585938 34.910156 L 75.582031 85.8125 C 70.6875 79.992188 63.398438 76.28125 55.261719 76.28125 C 40.652344 76.28125 28.765625 88.339844 28.765625 103.160156 C 28.765625 113.664062 34.820312 122.746094 43.582031 127.109375 L 30.941406 167.398438 C 29.539062 167.164062 28.113281 167.011719 26.648438 167.011719 C 11.957031 167.011719 0 179.070312 0 193.890625 C 0 208.625 11.957031 220.613281 26.648438 220.613281 C 28.320312 220.613281 29.945312 220.4375 31.53125 220.140625 L 43.015625 253.640625 C 35.832031 258.457031 31.074219 266.710938 31.074219 276.074219 C 31.074219 290.808594 42.960938 302.796875 57.570312 302.796875 C 72.265625 302.796875 84.21875 290.808594 84.21875 276.074219 C 84.21875 275.746094 84.183594 275.425781 84.171875 275.097656 L 145.710938 267.328125 C 148.792969 278.710938 159.054688 287.105469 171.238281 287.105469 C 171.628906 287.105469 172.007812 287.0625 172.390625 287.046875 L 181.421875 335.816406 C 174.953125 340.722656 170.742188 348.527344 170.742188 357.328125 C 170.742188 372.0625 182.628906 384.050781 197.238281 384.050781 C 211.933594 384.050781 223.886719 372.0625 223.886719 357.328125 C 223.886719 351.738281 222.179688 346.539062 219.269531 342.234375 L 268.050781 297.523438 C 271.039062 298.707031 274.28125 299.378906 277.683594 299.378906 C 290.167969 299.378906 300.644531 290.71875 303.523438 279.082031 L 333.40625 279.589844 C 335.0625 292.742188 346.265625 302.953125 359.824219 302.953125 C 374.433594 302.953125 386.320312 290.96875 386.320312 276.230469 C 386.320312 273.929688 386 271.699219 385.460938 269.566406 L 402.488281 259.917969 C 407.367188 266.238281 414.964844 270.328125 423.503906 270.328125 C 438.113281 270.328125 450 258.269531 450 243.449219 C 450 229.191406 438.859375 217.535156 424.898438 216.800781" fill="#1692ff"/></g></svg>